<?xml version="1.0" encoding="utf-8"?>
<!-- Generator: Adobe Illustrator 24.0.2, SVG Export Plug-In . SVG Version: 6.00 Build 0)  -->
<svg version="1.1" id="Capa_1" xmlns:svgjs="http://svgjs.com/svgjs"
	 xmlns="http://www.w3.org/2000/svg" xmlns:xlink="http://www.w3.org/1999/xlink" x="0px" y="0px" viewBox="0 0 384.4 512"
	 style="enable-background:new 0 0 384.4 512;" xml:space="preserve">
<style type="text/css">
	.st0{fill-rule:evenodd;clip-rule:evenodd;fill:#C6C6C6;}
</style>
<g>
	<g>
		<path class="st0" d="M10,402c5.5,0,10-4.5,10-10V20h344.4v20c0,5.5,4.5,10,10,10s10-4.5,10-10V10c0-5.5-4.5-10-10-10H10
			C4.5,0,0,4.5,0,10v382C0,397.5,4.5,402,10,402z"/>
		<path class="st0" d="M374.4,110c-5.5,0-10,4.5-10,10v268h-94c-5.5,0-10,4.5-10,10v94H20v-20c0-5.5-4.5-10-10-10s-10,4.5-10,10v30
			c0,5.5,4.5,10,10,10h260.4c0.1,0,0.1,0,0.2,0c0.3,0,0.5,0,0.8,0c0.2,0,0.3-0.1,0.5-0.1c0.2,0,0.3,0,0.5-0.1c0.2,0,0.3-0.1,0.5-0.1
			c0.1,0,0.3-0.1,0.4-0.1c0.2,0,0.3-0.1,0.5-0.2c0.2-0.1,0.3-0.1,0.5-0.2c0.1-0.1,0.3-0.1,0.4-0.2c0.2-0.1,0.3-0.1,0.5-0.2
			c0.1-0.1,0.2-0.1,0.4-0.2c0.2-0.1,0.3-0.2,0.5-0.3c0.1-0.1,0.3-0.2,0.4-0.3c0.1-0.1,0.3-0.2,0.4-0.3c0.3-0.2,0.5-0.4,0.7-0.7
			l104-104c0.3-0.3,0.6-0.7,0.9-1c0.1-0.1,0.1-0.2,0.2-0.3c0.3-0.4,0.5-0.7,0.7-1.1c0,0,0,0,0-0.1c0.2-0.4,0.4-0.7,0.5-1.1
			c0-0.1,0.1-0.2,0.1-0.3c0.1-0.4,0.3-0.8,0.3-1.2c0,0,0,0,0,0c0.1-0.4,0.1-0.8,0.2-1.3c0-0.1,0-0.2,0-0.3s0-0.2,0-0.3V120
			C384.4,114.5,380,110,374.4,110z M280.4,477.9V408h69.9L280.4,477.9z"/>
		<path class="st0" d="M94.2,308.8c25-20.1,60.7-31.7,98-31.7s73,11.6,98,31.7c1.8,1.5,4.1,2.2,6.3,2.2c2.9,0,5.8-1.3,7.8-3.7
			c3.5-4.3,2.8-10.6-1.5-14.1c-28.5-23-68.8-36.1-110.5-36.1s-82.1,13.2-110.5,36.1c-4.3,3.5-5,9.8-1.5,14.1
			C83.6,311.6,89.9,312.3,94.2,308.8z"/>
		<path class="st0" d="M303.6,107.9c-3.9-3.9-10.2-3.9-14.1,0l-22.6,22.6l-22.6-22.6c-3.9-3.9-10.2-3.9-14.1,0
			c-3.9,3.9-3.9,10.2,0,14.1l22.6,22.6l-22.6,22.6c-3.9,3.9-3.9,10.2,0,14.1c3.9,3.9,10.2,3.9,14.1,0l22.6-22.6l22.6,22.6
			c2,2,4.5,2.9,7.1,2.9s5.1-1,7.1-2.9c3.9-3.9,3.9-10.2,0-14.1L281,144.7l22.6-22.6C307.5,118.2,307.5,111.8,303.6,107.9z"/>
		<path class="st0" d="M80.9,181.4c3.9,3.9,10.2,3.9,14.1,0l22.6-22.6l22.6,22.6c2,2,4.5,2.9,7.1,2.9s5.1-1,7.1-2.9
			c3.9-3.9,3.9-10.2,0-14.1l-22.6-22.6l22.6-22.6c3.9-3.9,3.9-10.2,0-14.1c-3.9-3.9-10.2-3.9-14.1,0l-22.6,22.6L95,107.9
			c-3.9-3.9-10.2-3.9-14.1,0c-3.9,3.9-3.9,10.2,0,14.1l22.6,22.6l-22.6,22.6C77,171.2,77,177.5,80.9,181.4z"/>
		<path class="st0" d="M10,442c5.5,0,10-4.5,10-10c0-5.5-4.5-10-10-10s-10,4.5-10,10C0,437.5,4.5,442,10,442z"/>
		<path class="st0" d="M374.4,70c-5.5,0-10,4.5-10,10c0,5.5,4.5,10,10,10s10-4.5,10-10C384.4,74.5,380,70,374.4,70z"/>
	</g>
</g>
</svg>
